<svg xmlns="http://www.w3.org/2000/svg" viewBox="0 0 284.64 306.03"><defs><style>.cls-1{fill:none;stroke:#fff;stroke-miterlimit:10;stroke-width:12px;}.cls-2{fill:#fff;}</style></defs><g id="Слой_2" data-name="Слой 2"><g id="Слой_2-2" data-name="Слой 2"><path class="cls-1" d="M59.62,71.57l1.31-3.95,1.44-9A61,61,0,0,1,98.52,12.51l1.47-.63A72.7,72.7,0,0,1,153.8,10.5l1.19.44A84.34,84.34,0,0,1,199.2,48.55l.16.28a6.88,6.88,0,0,0,4.71,3.38l21.63,4.11a65.79,65.79,0,0,1,42.47,28.15l.37.56a59.78,59.78,0,0,1,8.56,46.72l-2.26,9.76a59.67,59.67,0,0,1-23,34.74l-.44.33a52.61,52.61,0,0,1-30.9,10H60.36a52.78,52.78,0,0,1-39-17.2h0a58.92,58.92,0,0,1-11.52-60.7h0A41.57,41.57,0,0,1,31.72,92l15.07-3.09a27.4,27.4,0,0,0,4.14-3.31h0A36,36,0,0,0,59.62,71.57Z"/><rect class="cls-2" x="20.93" y="205.62" width="17" height="62" rx="8.5" transform="translate(175.93 48.49) rotate(45)"/><rect class="cls-2" x="83.93" y="205.62" width="17" height="62" rx="8.5" transform="translate(194.39 3.94) rotate(45)"/><rect class="cls-2" x="27.93" y="250.62" width="17" height="62" rx="8.5" transform="translate(209.8 56.72) rotate(45)"/><rect class="cls-2" x="89.93" y="250.62" width="17" height="62" rx="8.5" transform="translate(227.96 12.88) rotate(45)"/><rect class="cls-2" x="148.93" y="201.62" width="17" height="62" rx="8.5" transform="translate(210.6 -43.19) rotate(45)"/><rect class="cls-2" x="211.93" y="201.62" width="17" height="62" rx="8.5" transform="translate(229.05 -87.74) rotate(45)"/><rect class="cls-2" x="154.93" y="250.62" width="17" height="62" rx="8.5" transform="translate(247 -33.08) rotate(45)"/></g></g></svg>